REM MD5 5332c3e1862146048ff4cdab378b96c7
FILE "Palm Town (Japan).bin" BINARY
  TRACK 01 MODE2/2352
    INDEX 01 00:00:00
  TRACK 02 AUDIO
    INDEX 00 07:32:19
    INDEX 01 07:34:19
  TRACK 03 AUDIO
    INDEX 00 11:47:56
    INDEX 01 11:49:56
REM LEADOUT 16:04:56
